<?xml version="1.0" encoding="utf-8"?>
<!-- Generator: Adobe Illustrator 19.2.1, SVG Export Plug-In . SVG Version: 6.00 Build 0)  -->
<svg version="1.1" id="Layer_1" xmlns="http://www.w3.org/2000/svg" xmlns:xlink="http://www.w3.org/1999/xlink" x="0px" y="0px"
	 viewBox="0 0 19 19" style="enable-background:new 0 0 19 19;" xml:space="preserve">
<style type="text/css">
	.st0{fill:#BC2A8D;}
</style>
<path id="path-1" class="st0" d="M18.9,13.4c0,1-0.2,1.7-0.4,2.3c-0.2,0.6-0.6,1.2-1.1,1.7c-0.5,0.5-1.1,0.9-1.7,1.1
	c-0.6,0.2-1.3,0.4-2.3,0.4c-1,0-1.3,0.1-3.9,0.1s-2.9,0-3.9-0.1c-1,0-1.7-0.2-2.3-0.4c-0.6-0.2-1.2-0.6-1.7-1.1
	c-0.5-0.5-0.9-1.1-1.1-1.7c-0.2-0.6-0.4-1.3-0.4-2.3c0-1-0.1-1.3-0.1-3.9s0-2.9,0.1-3.9c0-1,0.2-1.7,0.4-2.3
	c0.2-0.6,0.6-1.2,1.1-1.7c0.5-0.5,1.1-0.9,1.7-1.1c0.6-0.2,1.3-0.4,2.3-0.4C6.6,0,6.9,0,9.5,0s2.9,0,3.9,0.1c1,0,1.7,0.2,2.3,0.4
	c0.6,0.2,1.2,0.6,1.7,1.1c0.5,0.5,0.9,1.1,1.1,1.7c0.2,0.6,0.4,1.3,0.4,2.3c0,1,0.1,1.3,0.1,3.9S19,12.4,18.9,13.4z M17.2,5.7
	c0-0.9-0.2-1.4-0.3-1.8c-0.2-0.4-0.4-0.8-0.7-1.1c-0.3-0.3-0.6-0.5-1.1-0.7c-0.3-0.1-0.8-0.3-1.8-0.3c-1,0-1.3-0.1-3.8-0.1
	s-2.8,0-3.8,0.1C4.7,1.8,4.2,2,3.9,2.1C3.5,2.3,3.1,2.5,2.8,2.8C2.5,3.1,2.3,3.5,2.1,3.9C2,4.2,1.8,4.7,1.8,5.7c0,1-0.1,1.3-0.1,3.8
	c0,2.5,0,2.8,0.1,3.8c0,0.9,0.2,1.4,0.3,1.8c0.2,0.4,0.4,0.8,0.7,1.1c0.3,0.3,0.6,0.5,1.1,0.7c0.3,0.1,0.8,0.3,1.8,0.3
	c1,0,1.3,0.1,3.8,0.1s2.8,0,3.8-0.1c0.9,0,1.4-0.2,1.8-0.3c0.4-0.2,0.8-0.4,1.1-0.7c0.3-0.3,0.5-0.6,0.7-1.1
	c0.1-0.3,0.3-0.8,0.3-1.8c0-1,0.1-1.3,0.1-3.8C17.3,7,17.3,6.7,17.2,5.7z M14.6,5.6c-0.6,0-1.1-0.5-1.1-1.1c0-0.6,0.5-1.1,1.1-1.1
	s1.1,0.5,1.1,1.1C15.7,5.1,15.2,5.6,14.6,5.6z M9.5,14.4c-2.7,0-4.9-2.2-4.9-4.9c0-2.7,2.2-4.9,4.9-4.9s4.9,2.2,4.9,4.9
	C14.4,12.2,12.2,14.4,9.5,14.4z M9.5,6.3c-1.7,0-3.2,1.4-3.2,3.2s1.4,3.2,3.2,3.2s3.2-1.4,3.2-3.2S11.2,6.3,9.5,6.3z"/>
</svg>
