<?xml version="1.0" encoding="utf-8"?>
<!-- Generator: Adobe Illustrator 19.2.1, SVG Export Plug-In . SVG Version: 6.00 Build 0)  -->
<svg version="1.1" id="Layer_1" xmlns="http://www.w3.org/2000/svg" xmlns:xlink="http://www.w3.org/1999/xlink" x="0px" y="0px"
	 viewBox="0 0 19 14" style="enable-background:new 0 0 19 14;" xml:space="preserve">
<style type="text/css">
	.st0{fill:#00ACED;}
</style>
<path id="path-1" class="st0" d="M0,9.9c0,0,3.8,3.3,6.8,0c0,0-0.5,0-0.8-0.3C5.7,9.5,5.5,9,5.5,9s0.9-0.5,0.6-0.9
	c0,0-2.1,0-2.2-1.3L5.2,6c0,0-0.5,0.2-0.9,0c0,0-1.2-0.9-1-1.8l1-0.1c0,0-1.8-1.3-1.3-2.3c0,0,0.2-0.8,6,3.1c0,0,1-3.7,3-4.6
	c0,0,0.3,0.2,0.3,0.3c0,0,0.3-0.6,0.6-0.6c0,0,0.4,0.4,0.2,0.6c0,0,0.7-0.5,1.1-0.2c0,0,0,0.4-1.1,1c0,0,2.7,0.2,3.7,3.8
	c0,0,1.2,0.4,2.3-0.3c0,0,0.1,0.5-1.6,1.3c0,0,0.2,0.3,1.6,0.1c0,0,0,1.1-2.3,1.1c0,0-1.9,5.6-6.6,6.4C4.4,14.7,0.4,11.8,0,9.9z"/>
</svg>
